<?xml version="1.0" encoding="UTF-8" standalone="no"?>
<svg
   width="32"
   height="32"
   version="1.1"
   id="svg12"
   sodipodi:docname="start.svg"
   inkscape:version="1.2.1 (9c6d41e410, 2022-07-14, custom)"
   xml:space="preserve"
   xmlns:inkscape="http://www.inkscape.org/namespaces/inkscape"
   xmlns:sodipodi="http://sodipodi.sourceforge.net/DTD/sodipodi-0.dtd"
   xmlns:xlink="http://www.w3.org/1999/xlink"
   xmlns="http://www.w3.org/2000/svg"
   xmlns:svg="http://www.w3.org/2000/svg"
   xmlns:rdf="http://www.w3.org/1999/02/22-rdf-syntax-ns#"
   xmlns:cc="http://creativecommons.org/ns#"
   xmlns:dc="http://purl.org/dc/elements/1.1/"><metadata
     id="metadata16"><rdf:RDF><cc:Work
         rdf:about=""><dc:format>image/svg+xml</dc:format><dc:type
           rdf:resource="http://purl.org/dc/dcmitype/StillImage" /><dc:title /></cc:Work></rdf:RDF></metadata><sodipodi:namedview
     pagecolor="#c8c8c8"
     bordercolor="#666666"
     borderopacity="1"
     objecttolerance="10"
     gridtolerance="10"
     guidetolerance="10"
     inkscape:pageopacity="0"
     inkscape:pageshadow="2"
     inkscape:window-width="1920"
     inkscape:window-height="1005"
     id="namedview14"
     showgrid="false"
     inkscape:zoom="11.313709"
     inkscape:cx="0.35355337"
     inkscape:cy="13.037281"
     inkscape:window-x="0"
     inkscape:window-y="0"
     inkscape:window-maximized="1"
     inkscape:current-layer="svg12"
     inkscape:snap-bbox="true"
     inkscape:bbox-nodes="true"
     inkscape:snap-bbox-edge-midpoints="true"
     inkscape:snap-nodes="true"
     inkscape:document-rotation="0"
     inkscape:object-paths="true"
     inkscape:snap-intersection-paths="true"
     inkscape:snap-smooth-nodes="true"
     inkscape:snap-midpoints="true"
     inkscape:pagecheckerboard="0"
     inkscape:showpageshadow="0"
     inkscape:deskcolor="#c8c8c8"><inkscape:grid
       type="xygrid"
       id="grid4539" /></sodipodi:namedview><defs
     id="defs7386"><style
       id="current-color-scheme"
       type="text/css">
   .ColorScheme-Text { color:#dedede; } .ColorScheme-Highlight { color:#5294e2; } .ColorScheme-ButtonBackground { color:#dedede; }
  </style><linearGradient
       id="linearGradient8660"
       x1="-7.6728001"
       x2="-5.027"
       y1="-29.104"
       y2="-27.252001"
       gradientTransform="matrix(3.3620413,0,0,3.3620413,56.979969,79.985673)"
       gradientUnits="userSpaceOnUse"><stop
         stop-color="#00bffb"
         offset="0"
         id="stop17" /><stop
         stop-color="#01a0f3"
         offset="1"
         id="stop19" /></linearGradient><linearGradient
       id="linearGradient8668"
       x1="-4.7624002"
       x2="-1.852"
       y1="-27.252001"
       y2="-30.122999"
       gradientTransform="matrix(3.5258028,0,0,3.3620413,57.757906,79.985673)"
       gradientUnits="userSpaceOnUse"><stop
         stop-color="#11c2f4"
         offset="0"
         id="stop12" /><stop
         stop-color="#2dc5f4"
         offset="1"
         id="stop14" /></linearGradient><linearGradient
       id="linearGradient8676"
       x1="-7.6728001"
       x2="-5.027"
       y1="-26.722"
       y2="-24.493"
       gradientTransform="matrix(3.3620413,0,0,3.3620413,56.979969,79.985673)"
       gradientUnits="userSpaceOnUse"><stop
         stop-color="#0954a8"
         offset="0"
         id="stop7" /><stop
         stop-color="#0954a8"
         offset="1"
         id="stop9" /></linearGradient><linearGradient
       id="linearGradient8684"
       x1="-4.4977999"
       x2="-1.852"
       y1="-26.722"
       y2="-24.111"
       gradientTransform="matrix(3.5258028,0,0,3.3620413,57.757906,79.985673)"
       gradientUnits="userSpaceOnUse"><stop
         stop-color="#339ed9"
         offset="0"
         id="stop2" /><stop
         stop-color="#2386c9"
         offset="1"
         id="stop4" /></linearGradient><linearGradient
       inkscape:collect="always"
       xlink:href="#linearGradient25507"
       id="linearGradient25501"
       x1="251.18613"
       y1="146.39435"
       x2="279.73328"
       y2="245.87616"
       gradientUnits="userSpaceOnUse"
       gradientTransform="matrix(0.17008696,0,0,0.17008696,-36.430644,-87.055047)" /><linearGradient
       inkscape:collect="always"
       id="linearGradient25507"><stop
         style="stop-color:#434b51;stop-opacity:1"
         offset="0"
         id="stop25503" /><stop
         style="stop-color:#363b41;stop-opacity:1"
         offset="1"
         id="stop25505" /></linearGradient><linearGradient
       inkscape:collect="always"
       xlink:href="#linearGradient19412"
       id="linearGradient19406"
       x1="335.19812"
       y1="109.99369"
       x2="375.67068"
       y2="245.87616"
       gradientUnits="userSpaceOnUse"
       gradientTransform="matrix(0.17008696,0,0,0.17008696,-36.430644,-87.055047)" /><linearGradient
       inkscape:collect="always"
       id="linearGradient19412"><stop
         style="stop-color:#444c52;stop-opacity:1"
         offset="0"
         id="stop19408" /><stop
         style="stop-color:#34393f;stop-opacity:1"
         offset="1"
         id="stop19410" /></linearGradient><linearGradient
       inkscape:collect="always"
       xlink:href="#linearGradient25507"
       id="linearGradient3570"
       gradientUnits="userSpaceOnUse"
       gradientTransform="matrix(0.17008696,0,0,0.17008696,-36.430644,-87.055047)"
       x1="251.18613"
       y1="146.39435"
       x2="279.73328"
       y2="245.87616" /><linearGradient
       inkscape:collect="always"
       xlink:href="#linearGradient19412"
       id="linearGradient3572"
       gradientUnits="userSpaceOnUse"
       gradientTransform="matrix(0.17008696,0,0,0.17008696,-36.430644,-87.055047)"
       x1="335.19812"
       y1="109.99369"
       x2="375.67068"
       y2="245.87616" /></defs><rect
     style="color:#bebebe;display:inline;overflow:visible;visibility:visible;fill:none;stroke:none;stroke-width:1;marker:none"
     id="rect815"
     width="32"
     height="32"
     x="0"
     y="-85.754387" /><g
     id="start-here-kde"><rect
       style="color:#bebebe;display:inline;overflow:visible;visibility:visible;fill:none;stroke:none;stroke-width:1;marker:none"
       id="rect6336-6"
       width="32"
       height="32"
       x="0"
       y="0" /><g
       id="g2816"
       transform="translate(0,76.01609)"><circle
         style="opacity:1;fill:#1b1d22;fill-opacity:1;fill-rule:evenodd;stroke-width:12.5631;stroke-linecap:round;stroke-linejoin:round;paint-order:stroke fill markers"
         id="circle817"
         cx="16"
         cy="-60.016556"
         r="15" /><path
         id="path2769"
         style="color:#000000;fill:url(#linearGradient25501);stroke-width:0.5"
         d="M 6.2929688,-62.15625 1.3125,-57.146484 a 15,15 0 0 0 12.787109,11.99414 l 3.751953,0.002 a 15,15 0 0 0 4.207032,-1.158203 z" /><path
         id="path2771"
         style="color:#000000;fill:#78f467"
         d="M 6.2929688,-62.509766 1.2480469,-57.4375 A 15,15 0 0 0 1.375,-56.855469 l 4.9179688,-4.945312 15.5078122,15.58789 a 15,15 0 0 0 0.50586,-0.201171 z m 6.4960932,17.105469 A 15,15 0 0 0 16,-45.015625 a 15,15 0 0 0 3.181641,-0.382813 z" /><path
         id="path2753"
         style="color:#000000;fill:url(#linearGradient19406);stroke-width:0.5"
         d="M 20.582031,-68.345703 3.734375,-51.433594 a 15,15 0 0 0 10.779297,6.310547 h 2.972656 a 15,15 0 0 0 13.375,-12.945312 z" /><path
         id="path2755"
         style="color:#000000;fill:#78f467"
         d="M 20.582031,-68.701172 3.5820312,-51.636719 a 15,15 0 0 0 0.3046876,0.404297 l 16.6972652,-16.759766 10.236328,10.234376 a 15,15 0 0 0 0.06445,-0.642579 z m -7.65039,23.328125 A 15,15 0 0 0 16,-45.015625 a 15,15 0 0 0 3.068359,-0.357422 z" /><path
         id="path2777"
         style="color:#000000;fill:#1f2225;stroke-width:0.5"
         d="m 6.2929688,-62.15625 -4.9726563,5.046875 a 15,15 0 0 0 1.2265625,3.673828 l 0.8613281,-2.193359 -0.1601562,-0.767578 2.0605469,-2.550782 -0.5273438,-0.564453 z" /><path
         id="path2779"
         style="color:#000000;fill:#78f467"
         d="m 6.1152344,-62.330078 -4.859375,4.929687 a 15,15 0 0 0 0.1289062,0.583985 l 3.7382813,-3.794922 -0.6503907,1.134766 0.5058594,0.541015 -2,2.474609 0.1699219,0.808594 -0.7578125,1.929688 a 15,15 0 0 0 0.390625,0.71875 l 0.00195,-0.355469 0.8847657,-2.248047 -0.1503907,-0.724609 2.1230469,-2.626953 -0.5507812,-0.589844 1.4199218,-2.482422 z" /><path
         id="path2761"
         style="color:#000000;fill:#1f2225;stroke-width:0.5"
         d="M 20.582031,-68.345703 3.734375,-51.433594 a 15,15 0 0 0 10.779297,6.310547 h 0.564453 l 0.449219,-1.71875 0.919922,-2.703125 0.0293,-2.373047 0.16211,-1.257812 1.242187,-3.5625 -0.240234,-1.367188 1.126953,-2.728515 -0.146484,-0.714844 1.58789,-3.861328 -0.08984,-1.320313 z" /><path
         id="path2763"
         style="color:#000000;fill:#78f467"
         d="M 20.404297,-68.523438 3.5820312,-51.636719 a 15,15 0 0 0 0.3046876,0.404297 l 16.1875002,-16.25 -0.207031,0.72461 0.08789,1.30664 -1.595703,3.876953 0.146484,0.714844 -1.125,2.724609 0.242188,1.375 -1.228516,3.525391 -0.167969,1.298828 -0.0293,2.347656 -0.910157,2.673829 -0.402343,1.541015 h -1.953125 a 15,15 0 0 0 2.390625,0.308594 l 0.443359,-1.705078 0.931641,-2.732422 0.0293,-2.398438 0.15625,-1.21875 1.25586,-3.599609 -0.240234,-1.359375 1.128906,-2.732422 -0.146485,-0.712891 1.582032,-3.845703 -0.0918,-1.333984 0.451172,-1.574219 z" /></g></g><g
     id="22-22-start-here-kde"
     transform="translate(3.2120402)"><circle
       r="11"
       cy="21"
       cx="47.360668"
       id="path822"
       style="opacity:0;fill:#ffffff;fill-opacity:1;stroke:none;stroke-width:1.24874;stroke-linecap:round;stroke-linejoin:round;stroke-miterlimit:4;stroke-dasharray:none;stroke-opacity:1;paint-order:normal" /><g
       id="g3566"
       transform="matrix(0.6,0,0,0.6,37.760668,57.009654)"><circle
         style="opacity:1;fill:#1b1d22;fill-opacity:1;fill-rule:evenodd;stroke-width:12.5631;stroke-linecap:round;stroke-linejoin:round;paint-order:stroke fill markers"
         id="circle3548"
         cx="16"
         cy="-60.016556"
         r="15" /><path
         id="path3550"
         style="color:#000000;fill:url(#linearGradient3570);stroke-width:0.5"
         d="M 6.2929688,-62.15625 1.3125,-57.146484 a 15,15 0 0 0 12.787109,11.99414 l 3.751953,0.002 a 15,15 0 0 0 4.207032,-1.158203 z" /><path
         id="path3552"
         style="color:#000000;fill:#78f467"
         d="M 6.2929688,-62.509766 1.2480469,-57.4375 A 15,15 0 0 0 1.375,-56.855469 l 4.9179688,-4.945312 15.5078122,15.58789 a 15,15 0 0 0 0.50586,-0.201171 z m 6.4960932,17.105469 A 15,15 0 0 0 16,-45.015625 a 15,15 0 0 0 3.181641,-0.382813 z" /><path
         id="path3554"
         style="color:#000000;fill:url(#linearGradient3572);stroke-width:0.5"
         d="M 20.582031,-68.345703 3.734375,-51.433594 a 15,15 0 0 0 10.779297,6.310547 h 2.972656 a 15,15 0 0 0 13.375,-12.945312 z" /><path
         id="path3556"
         style="color:#000000;fill:#78f467"
         d="M 20.582031,-68.701172 3.5820312,-51.636719 a 15,15 0 0 0 0.3046876,0.404297 l 16.6972652,-16.759766 10.236328,10.234376 a 15,15 0 0 0 0.06445,-0.642579 z m -7.65039,23.328125 A 15,15 0 0 0 16,-45.015625 a 15,15 0 0 0 3.068359,-0.357422 z" /><path
         id="path3558"
         style="color:#000000;fill:#1f2225;stroke-width:0.5"
         d="m 6.2929688,-62.15625 -4.9726563,5.046875 a 15,15 0 0 0 1.2265625,3.673828 l 0.8613281,-2.193359 -0.1601562,-0.767578 2.0605469,-2.550782 -0.5273438,-0.564453 z" /><path
         id="path3560"
         style="color:#000000;fill:#78f467"
         d="m 6.1152344,-62.330078 -4.859375,4.929687 a 15,15 0 0 0 0.1289062,0.583985 l 3.7382813,-3.794922 -0.6503907,1.134766 0.5058594,0.541015 -2,2.474609 0.1699219,0.808594 -0.7578125,1.929688 a 15,15 0 0 0 0.390625,0.71875 l 0.00195,-0.355469 0.8847657,-2.248047 -0.1503907,-0.724609 2.1230469,-2.626953 -0.5507812,-0.589844 1.4199218,-2.482422 z" /><path
         id="path3562"
         style="color:#000000;fill:#1f2225;stroke-width:0.5"
         d="M 20.582031,-68.345703 3.734375,-51.433594 a 15,15 0 0 0 10.779297,6.310547 h 0.564453 l 0.449219,-1.71875 0.919922,-2.703125 0.0293,-2.373047 0.16211,-1.257812 1.242187,-3.5625 -0.240234,-1.367188 1.126953,-2.728515 -0.146484,-0.714844 1.58789,-3.861328 -0.08984,-1.320313 z" /><path
         id="path3564"
         style="color:#000000;fill:#78f467"
         d="M 20.404297,-68.523438 3.5820312,-51.636719 a 15,15 0 0 0 0.3046876,0.404297 l 16.1875002,-16.25 -0.207031,0.72461 0.08789,1.30664 -1.595703,3.876953 0.146484,0.714844 -1.125,2.724609 0.242188,1.375 -1.228516,3.525391 -0.167969,1.298828 -0.0293,2.347656 -0.910157,2.673829 -0.402343,1.541015 h -1.953125 a 15,15 0 0 0 2.390625,0.308594 l 0.443359,-1.705078 0.931641,-2.732422 0.0293,-2.398438 0.15625,-1.21875 1.25586,-3.599609 -0.240234,-1.359375 1.128906,-2.732422 -0.146485,-0.712891 1.582032,-3.845703 -0.0918,-1.333984 0.451172,-1.574219 z" /></g></g></svg>
